<svg width="143" height="57" viewBox="0 0 143 57" fill="none" xmlns="http://www.w3.org/2000/svg">
<path d="M0.928 50L15.022 7.834H22.388L36.453 50H30.682L26.651 37.327L29.783 39.531H8.265L10.411 34.804H28.275L26.564 37.037L21.228 20.362L18.734 11.865H18.589L16.182 20.362L6.699 50H0.928ZM40.9829 50V7.834H46.4349V47.593L43.6799 44.809H64.9079V50H40.9829Z" fill="#F2F2F2"/>
<line x1="71" y1="8" x2="71" y2="50" stroke="#F2F2F2" strokeWidth="2"/>
<path d="M78.384 25.5L84.216 8.052H87.264L93.084 25.5H90.696L89.028 20.256L90.324 21.168H81.42L82.308 19.212H89.7L88.992 20.136L86.784 13.236L85.752 9.72H85.692L84.696 13.236L80.772 25.5H78.384ZM94.9584 25.5V8.052H97.6704L103.67 18.948L105.626 23.148H105.722L105.35 18.876V8.052H107.594V25.5H104.882L98.9304 14.676L97.0104 10.512H96.9024L97.2024 14.856V25.5H94.9584ZM111.189 25.5V8.052H113.901L119.901 18.948L121.857 23.148H121.953L121.581 18.876V8.052H123.825V25.5H121.113L115.161 14.676L113.241 10.512H113.133L113.433 14.856V25.5H111.189ZM125.694 25.5L131.526 8.052H134.574L140.394 25.5H138.006L136.338 20.256L137.634 21.168H128.73L129.618 19.212H137.01L136.302 20.136L134.094 13.236L133.062 9.72H133.002L132.006 13.236L128.082 25.5H125.694ZM80.04 49.5V32.052H82.296V48.504L81.156 47.352H89.94V49.5H80.04ZM91.9464 49.5V32.052H94.2384V49.5H91.9464ZM105.186 49.74C103.53 49.74 102.09 49.372 100.866 48.636C99.65 47.9 98.71 46.86 98.046 45.516C97.382 44.164 97.05 42.568 97.05 40.728C97.05 38.888 97.378 37.296 98.034 35.952C98.69 34.6 99.61 33.56 100.794 32.832C101.986 32.096 103.37 31.728 104.946 31.728C106.018 31.728 107.006 31.92 107.91 32.304C108.814 32.688 109.566 33.276 110.166 34.068C110.774 34.86 111.166 35.864 111.342 37.08H109.026C108.97 36.68 108.834 36.288 108.618 35.904C108.402 35.512 108.114 35.16 107.754 34.848C107.402 34.528 106.982 34.276 106.494 34.092C106.006 33.9 105.454 33.804 104.838 33.804C104.07 33.804 103.354 33.956 102.69 34.26C102.034 34.564 101.454 35.012 100.95 35.604C100.454 36.188 100.066 36.912 99.786 37.776C99.506 38.632 99.366 39.616 99.366 40.728C99.366 42.224 99.618 43.488 100.122 44.52C100.626 45.552 101.314 46.336 102.186 46.872C103.066 47.4 104.062 47.664 105.174 47.664C105.646 47.664 106.146 47.616 106.674 47.52C107.202 47.416 107.702 47.268 108.174 47.076C108.646 46.884 109.026 46.652 109.314 46.38L109.326 42.492H105.402V40.44H111.486L111.462 47.52C110.614 48.176 109.662 48.712 108.606 49.128C107.55 49.536 106.41 49.74 105.186 49.74ZM120.634 49.74C119.418 49.74 118.334 49.484 117.382 48.972C116.43 48.46 115.682 47.684 115.138 46.644C114.594 45.604 114.322 44.292 114.322 42.708V32.028H116.614V42.732C116.614 43.668 116.722 44.452 116.938 45.084C117.162 45.716 117.462 46.22 117.838 46.596C118.222 46.972 118.654 47.244 119.134 47.412C119.614 47.572 120.118 47.652 120.646 47.652C121.15 47.652 121.634 47.572 122.098 47.412C122.562 47.244 122.978 46.972 123.346 46.596C123.722 46.22 124.018 45.716 124.234 45.084C124.45 44.452 124.558 43.668 124.558 42.732V32.052H126.838V42.708C126.838 44.292 126.562 45.604 126.01 46.644C125.458 47.684 124.714 48.46 123.778 48.972C122.842 49.484 121.794 49.74 120.634 49.74ZM135.236 49.74C134.012 49.74 132.94 49.54 132.02 49.14C131.108 48.74 130.396 48.14 129.884 47.34C129.372 46.54 129.104 45.54 129.08 44.34H131.276C131.3 45.108 131.484 45.74 131.828 46.236C132.172 46.732 132.644 47.104 133.244 47.352C133.852 47.592 134.556 47.712 135.356 47.712C136.228 47.712 136.928 47.6 137.456 47.376C137.992 47.152 138.384 46.848 138.632 46.464C138.88 46.072 139.004 45.636 139.004 45.156C139.004 44.564 138.836 44.076 138.5 43.692C138.172 43.3 137.688 42.956 137.048 42.66C136.416 42.356 135.648 42.048 134.744 41.736C133.784 41.4 132.932 41 132.188 40.536C131.452 40.064 130.872 39.496 130.448 38.832C130.024 38.16 129.812 37.368 129.812 36.456C129.812 34.936 130.304 33.776 131.288 32.976C132.28 32.176 133.62 31.776 135.308 31.776C136.436 31.776 137.368 31.956 138.104 32.316C138.848 32.676 139.424 33.212 139.832 33.924C140.24 34.628 140.508 35.504 140.636 36.552H138.428C138.356 36 138.204 35.52 137.972 35.112C137.74 34.696 137.4 34.376 136.952 34.152C136.512 33.92 135.924 33.804 135.188 33.804C134.188 33.804 133.408 34.016 132.848 34.44C132.296 34.864 132.02 35.5 132.02 36.348C132.02 36.852 132.12 37.292 132.32 37.668C132.528 38.044 132.896 38.4 133.424 38.736C133.952 39.072 134.712 39.432 135.704 39.816C136.424 40.096 137.116 40.376 137.78 40.656C138.444 40.936 139.036 41.26 139.556 41.628C140.076 41.988 140.488 42.44 140.792 42.984C141.096 43.52 141.248 44.192 141.248 45C141.264 46.52 140.76 47.692 139.736 48.516C138.712 49.332 137.212 49.74 135.236 49.74Z" fill="#F2F2F2"/>
</svg>
